<?xml version="1.0" encoding="utf-8"?>
<!-- Generator: Adobe Illustrator 19.1.0, SVG Export Plug-In . SVG Version: 6.00 Build 0)  -->
<svg version="1.1" xmlns="http://www.w3.org/2000/svg" xmlns:xlink="http://www.w3.org/1999/xlink" x="0px" y="0px"
	 viewBox="0 0 140 42" style="enable-background:new 0 0 140 42;" xml:space="preserve">
<style type="text/css">
	.st0{fill:none;stroke:#000000;stroke-width:2;stroke-miterlimit:10;}
	.st1{fill:#3089B3;}
	.st2{fill:#255864;}
	.st3{fill:#FFFFFF;}
</style>
<g id="Layer_1">
	<g>
		<path d="M11.5,4.1L9.2,9.5h2v5.9H5.4V9.5l3.7-5.4H11.5z M17.6,9.5h1.9v5.9h-5.9V9.5l3.7-5.4h2.4L17.6,9.5z"/>
		<path d="M35.4,29.2h-9.2l-2.3,8.4h-5.3L29,10l-2-6h7.1l11.2,33.6h-7.1L35.4,29.2z M34.3,25.9l-3.9-11.7l-3.3,11.7H34.3z"/>
		<path d="M54.2,35c2.2,0,3.3-1.2,3.3-2.9c0-4.7-10.2-3.5-10.2-11.6c0-4.5,4.4-7.5,8.5-7.5c2.8,0,6,0.9,7.5,2.2L62,19.9
			c-1.4-2-3-3.5-5.4-3.6c-2.3,0-3.6,1.2-3.6,2.8c0,4.6,11.5,3.5,11.5,10.9c0,4.7-4,8.4-9.9,8.4c-3.3,0-6.4-1.1-8.5-3.1l2.7-5.3
			C49.7,33.1,52.4,35,54.2,35z"/>
		<path d="M80.4,3.9l6.9,0v3.8l-6.9-0.5V3.9z M80.4,13.6h6.9v24h-6.9V13.6z M119.7,10.4v9.7l10.9-2v7.5l-10.9-2v13.9h-6.9V9.9
			L98,8.8v11.3l10.9-2v7.5l-10.9-2v13.9h-6.9V4H134v7.5L119.7,10.4z"/>
	</g>
</g>
<g id="Layer_2">
</g>
</svg>
