<svg xmlns="http://www.w3.org/2000/svg" viewBox="0 0 140 42" enable-background="new 0 0 140 42"><style type="text/css">.st0{fill:none;stroke:#000000;stroke-width:2;stroke-miterlimit:10;} .st1{fill:#3089B3;} .st2{fill:#255864;} .st3{fill:#FFFFFF;}</style><g id="Layer_1"><path d="M11.5 4.1L9.2 9.5h2v5.9H5.4V9.5l3.7-5.4h2.4zm6.1 5.4h1.9v5.9h-5.9V9.5l3.7-5.4h2.4l-2.1 5.4zM35.4 29.2h-9.2l-2.3 8.4h-5.3L29 10l-2-6h7.1l11.2 33.6h-7.1l-2.8-8.4zm-1.1-3.3l-3.9-11.7-3.3 11.7h7.2zM54.2 35c2.2 0 3.3-1.2 3.3-2.9 0-4.7-10.2-3.5-10.2-11.6 0-4.5 4.4-7.5 8.5-7.5 2.8 0 6 .9 7.5 2.2L62 19.9c-1.4-2-3-3.5-5.4-3.6-2.3 0-3.6 1.2-3.6 2.8 0 4.6 11.5 3.5 11.5 10.9 0 4.7-4 8.4-9.9 8.4-3.3 0-6.4-1.1-8.5-3.1l2.7-5.3c.9 3.1 3.6 5 5.4 5zM80.4 3.9h6.9v3.8l-6.9-.5V3.9zm0 9.7h6.9v24h-6.9v-24zm39.3-3.2v9.7l10.9-2v7.5l-10.9-2v13.9h-6.9V9.9L98 8.8v11.3l10.9-2v7.5l-10.9-2v13.9h-6.9V4H134v7.5l-14.3-1.1z"/></g></svg>